<svg xmlns="http://www.w3.org/2000/svg" width="582.77" height="311.028" viewBox="0 0 582.77 311.028">
  <g id="Group_296" data-name="Group 296" transform="translate(-533.257 -1060.974)">
    <path id="Path_6329" data-name="Path 6329" d="M541.578,1127.34q-1.782,2.3-3.559,4.6a22.7,22.7,0,0,0-3.109,11.489,302.924,302.924,0,0,0,1.124,72.321c2.129,16,5.447,32.216,11.927,47.07,5.413,12.408,19.144,34.82,36.009,30.081,16.422-4.607,19.748-26.79,23.96-40.551,1.445-4.722,2.738-9.472,3.746-14.308,1.025-4.936,1.909-9.894,2.964-14.822.521,3.276,1.078,6.545,1.789,9.79,2.591,11.816,8,38.148,22.7,40.087a9.822,9.822,0,0,0,5.6-1.25,18,18,0,0,0,4.629-3.809c13.559-14.711,18.057-39.975,21.144-59.084a383.551,383.551,0,0,0,4.708-72.451c-.012-.371-.039-.738-.078-1.11a11.19,11.19,0,0,0-3.11-7.507,10.617,10.617,0,0,0-15.015,0,11.19,11.19,0,0,0-3.11,7.507c-.211,2.661-.1,5.336-.078,8,.411,34.552.913,74.693-12.278,107.211q-.308.719-.62,1.434c-.654-1.963-1.288-3.932-1.946-5.887a329.416,329.416,0,0,1-10.86-41.649c-1.228-6.279-1.107-24.957-10.944-24.652a6.842,6.842,0,0,0-5.806,3.335c-2.991,5.124-1.839,12.012-2.494,17.716-2.351,20.463-13.832,58.578-19.64,60.127-14.038,3.743-11.708-103.882-12.107-112.976-.579-13.188-5.111-27.385-19.453-27.385A22.85,22.85,0,0,0,541.578,1127.34Zm95.692,131.512-.008.008c-.034.014-.068.026-.1.038l.11-.046Zm34.363-57.512q.128-.954.254-1.909c-.085.635-.171,1.272-.254,1.909Zm.306-2.3-.052.39q.051-.381.1-.759l-.049.369Z" fill="#00697a"/>
    <path id="Path_6330" data-name="Path 6330" d="M726.339,1061.709c-5.779,1.825-10.69,6.545-14.517,11.244-19.08,23.434-23.58,56.07-23.184,85.4.037,2.714.182,5.427.389,8.136a6.648,6.648,0,0,0-3.748,2.9,6.375,6.375,0,0,0-.637,4.883,6.657,6.657,0,0,0,5.647,4.7q1.472,12.286,3.744,24.457c.765,4.156,1.64,8.3,2.582,12.424,1.665,7.292,3.87,16.445,12.223,18.943a12.292,12.292,0,0,0,13.8-5.617c2.441-4.036,2.028-8.235,1.622-12.6a79.505,79.505,0,0,1,2.793-8.759c2.546-5.831,16.618-41.7,24.493-40.021,7.168,1.528.7,35.908-1,45.945-3.726,22.066-11.76,44.754,4.1,49.114a11.537,11.537,0,0,0,14.067-7.985c4.988-19.351,8.378-50.953,7.718-61.582-1.221-19.659-1.577-26.837-7.807-38.961a18,18,0,0,0-4.684-6.249c-4.126-3.181-9.077-1.634-13.04.855a43.114,43.114,0,0,0-6.488,5.344c-1.84,1.738-3.613,3.55-5.278,5.453a175.505,175.505,0,0,0-17.822,24.961c-.6-7.235-1-14.494-1.123-21.742q-.011-.664-.015-1.329a84.159,84.159,0,0,0,10.031-11.39c14.905-19.811,27.6-54.641,16-78.825C742.565,1063.824,734.7,1059.069,726.339,1061.709Zm7.9,15.258.088.054c.239.233.464.476.684.727a20.763,20.763,0,0,1,1.456,2.546,35.733,35.733,0,0,1,1.459,5.558,76.008,76.008,0,0,1,.373,10.508c-.109,3.646-.292,7.276-.7,10.9a85.864,85.864,0,0,1-5.236,18.427,78.989,78.989,0,0,1-8.355,14.368q-1.687,2.133-3.455,4.187c.075-2.958.169-5.915.323-8.868.242-4.614.64-9.215.918-13.829.221-3.665.57-7.338,1.016-10.988q.171-1.217.335-2.434c.611-4.123,1.354-8.2,2.317-12.253a79.392,79.392,0,0,1,3.632-11.067,45.4,45.4,0,0,1,3.65-6.728c.314-.362.64-.711.985-1.045.075-.022.151-.042.227-.063l.286,0Zm11.054,97.015c-.193.249-.194.248,0,0Z" fill="#00697a"/>
    <path id="Path_6331" data-name="Path 6331" d="M817.95,1124.2c-43.221,5.379-37.025,109.267,10.625,95.868,10.254-2.883,17.114-12.58,21.226-22.405a84.718,84.718,0,0,0,6.512-34.865c-.358-13.2-6.421-26.3-17.819-33.458C831.973,1125.242,824.708,1123.358,817.95,1124.2Zm6.315,21.767a6.712,6.712,0,0,1,5.249-.606c6.574,1.784,10.778,5.76,12.423,12.321,2.981,11.886,1.355,39.155-13.19,44.094C812.345,1207.342,810.89,1153.539,824.265,1145.966Z" fill="#00697a"/>
    <path id="Path_6332" data-name="Path 6332" d="M800.633,1248.171a10.855,10.855,0,0,0-7.492,13.2c.441,1.738,1.2,3.375,1.766,5.079,5.1,15.344,5.929,31.872,4.3,47.871-.416,4.08-3.75,36.627-10.875,34.54-5.32-1.558-17.721-64.8-29.842-53.01-6.316,6.143-6.8,47.093-13.518,50.933-7.567,4.324-12.431-38.376-15.674-50.267-2.3-8.424-7.514-10.869-11.478-10.869-7.95,0-15.332,6.832-15.02,15.016a122.32,122.32,0,0,0,8.914,40.5c4.479,11.164,9.95,26.247,22.453,30.168,8.155,2.557,16.089-2.6,20.472-9.219,5.76-8.693,8.9-20.958,11.036-31.09q.2-.933.384-1.868.6,2.281,1.2,4.56c2.752,10.351,8.134,33.027,19.825,36.87,18.583,6.108,26.531-42.91,28.335-53.6,3.24-19.194,4.746-42.566-1.589-61.325a11.182,11.182,0,0,0-4.929-6.414,10.794,10.794,0,0,0-5.432-1.461A10.634,10.634,0,0,0,800.633,1248.171Zm-31.109,54.086-.036.083c.012-.028.023-.056.036-.083Zm28.049,20.2-.013.095.013-.095Zm-10.26,34.377,0,0c-.035.015-.071.029-.108.043l.11-.046Zm10.314-34.788v-.01c.022-.166.045-.333.067-.5-.023.17-.046.34-.068.51Z" fill="#00697a"/>
    <path id="Path_6333" data-name="Path 6333" d="M857.956,1245.968c-8.013,2.13-15.72,8.569-19.931,15.211-8.751,13.818-13.291,32.308-13.56,48.657-.582,35.325,29.686,59.648,57.792,34.785,10.6-9.373,6.487-18.918-8.107-12.972-17.775,7.241-19.264-12.155-20.268-18.246q-.14-1.528-.226-3.058a26.7,26.7,0,0,0,7.916-3.892c10.464-7.494,18.459-18.764,20.5-31.647C884.406,1260.123,875.393,1241.333,857.956,1245.968Zm6.882,20.424c7.309,4.031-2.4,30.418-11.8,31.235-1.5-3.678-.273-13.894,2.451-21.114C857.753,1270.507,861.992,1264.822,864.838,1266.392Z" fill="#00697a"/>
    <path id="Path_6334" data-name="Path 6334" d="M986.475,1243.266c-.6.055-1.187.149-1.777.235a6.33,6.33,0,0,0-2.817,1.672,9.361,9.361,0,0,0-1.148,1.148,27.955,27.955,0,0,0-3.285,4.383c-1.252,2.159-2.5,4.321-3.812,6.443-.728-.989-1.511-1.943-2.239-2.869a22.7,22.7,0,0,0-25.1-7.161c-15.876,5.305-22.466,24.03-26.811,38.6-5.369,18.008-4.42,55.91,23.984,40.417,5.994-3.269,9.058-6.942,10.533-8.161a59.567,59.567,0,0,0-.779,13.31c.421,6.35,1.6,13.425,4.335,19.2,2.206,4.655,6.629,9.554,12.212,9.439a10.536,10.536,0,0,0,1.637-.2c.427-.052.852-.115,1.273-.206a10.407,10.407,0,0,0,2.389-1.038c5.685-2.886,4.432-9.99,5.055-15.345,1.093-9.4,2.7-18.762,4.068-28.124,2.925-20.066,5.817-40.142,8.07-60.3a22.446,22.446,0,0,0,.254-3.071c-.054-1.82.031-4.058-1.109-5.55a5.754,5.754,0,0,0-4.576-2.845C986.71,1243.25,986.593,1243.255,986.475,1243.266Zm-28.459,30.118a3.775,3.775,0,0,1,.806.134c8.075,2.309,1.276,18.674-1.006,23.922-7.3,16.8-17.259,18.544-18.708,13.985C936.376,1302.824,945.8,1272.583,958.016,1273.384Zm17.752,76h0Z" fill="#00697a"/>
    <path id="Path_6335" data-name="Path 6335" d="M1010.487,1237.322c-6.889,7.288-9.145,35.336-10.093,47.419-1.3,16.627,1.375,64.825,22.317,62.869,11.29-1.055,15.4-9.506,16.256-19.853.677-8.2.944-16.448,1.127-24.671.1-4.629.078-9.262.013-13.9q2-3.322,4.315-6.444c4.379-5.924,9.686-12.6,15.908-17.042,8.459-6.041,15.078-8.988,16.58-14.453a5.676,5.676,0,0,0-.572-4.354c-6.293-10.714-26.846,14.562-30.846,19.311q-2.884,3.426-5.626,6.977,0-.471-.007-.941c-.014-2.475-.066-4.967.085-7.442.335-1.853.68-3.7.974-5.562.222-1.652.433-3.3.664-4.953C1043.725,1238.957,1019.744,1227.53,1010.487,1237.322Z" fill="#00697a"/>
    <path id="Path_6336" data-name="Path 6336" d="M1096.622,1256.118c-12.736,1.192-26.5,14.316-32.473,23.421-9.256,14.117-13.552,32.757-9.888,49.707,6.355,29.4,37.925,39.392,54.144,19.994,4.194-5,1.068-8.028-7.729-4.248-5.97,2.565-12.453.216-16.63-7.231-2.915-5.2-5.268-17.255-1.848-32.888,1.218.2,2.453.35,3.71.479,10.158,1.02,19.35-4.86,24.814-13.217,5.382-8.232,8.056-21.244,1.222-29.467C1107.519,1257.344,1102.168,1255.6,1096.622,1256.118Zm5.29,15.5a5.882,5.882,0,0,1,.724.306l-.724-.306Zm-1.123,4.429c.084.02.168.044.25.072,4.227,1.429.954,8.545-.312,11.07-3.383,6.748-9.417,9.714-16.681,9.339,0,0,3.632-16.346,14.183-20.287A4.46,4.46,0,0,1,1100.789,1276.051Zm2.273-3.755c.1.118.191.239.279.365l-.279-.365Zm-9.537,83.142-.276.038.276-.038Z" fill="#00697a"/>
  </g>
</svg>
